<svg xmlns="http://www.w3.org/2000/svg" width="30" height="30" viewBox="0 0 30 30">
  <g id="bot" transform="translate(-0.162)">
    <path id="矩形_56" data-name="矩形 56" d="M2.948,0h24.1A2.946,2.946,0,0,1,30,2.948v24.1A2.946,2.946,0,0,1,27.052,30H2.948A2.946,2.946,0,0,1,0,27.051V2.948A2.946,2.946,0,0,1,2.948,0Z" transform="translate(0.162 0)" fill="#f6f9fa"/>
    <g id="组_155" data-name="组 155" transform="translate(3.162 4)">
      <path id="路径_645" data-name="路径 645" d="M3,3.983a1.06,1.06,0,0,1-.549.2,1.085,1.085,0,0,1-.959-.471,1.06,1.06,0,0,1-.184-.553l-.07-1.579a1.062,1.062,0,0,1,.123-.549A1.083,1.083,0,0,1,2.228.463,1.062,1.062,0,0,1,2.777.57l1.356.661a1.062,1.062,0,0,1,.425.371,1.083,1.083,0,0,1,.085,1.029,1.062,1.062,0,0,1-.358.435Z" transform="translate(3.611 16.264)" fill="#06f"/>
      <path id="路径_640" data-name="路径 640" d="M1.941,0H15.989a2.028,2.028,0,0,1,1.373.522,1.714,1.714,0,0,1,.568,1.263v10.93a1.714,1.714,0,0,1-.568,1.263,2.028,2.028,0,0,1-1.373.522H1.941a2.028,2.028,0,0,1-1.373-.522A1.714,1.714,0,0,1,0,12.715V1.785A1.714,1.714,0,0,1,.568.522,2.028,2.028,0,0,1,1.941,0Z" transform="translate(2.808 4.447)" fill="#06f"/>
      <path id="路径_636" data-name="路径 636" d="M0,0H1.437A1.435,1.435,0,0,1,2.874,1.437V7.922A1.435,1.435,0,0,1,1.437,9.358H0Z" transform="translate(20.67 7.047)" fill="#06f"/>
      <path id="路径_637" data-name="路径 637" d="M1.437,0H2.874V9.358H1.437A1.435,1.435,0,0,1,0,7.922V1.437A1.435,1.435,0,0,1,1.437,0Z" transform="translate(0 7.047)" fill="#06f"/>
      <path id="路径_643" data-name="路径 643" d="M1.955,0H14.592a2.051,2.051,0,0,1,1.383.522,1.709,1.709,0,0,1,.572,1.263v5.23a1.709,1.709,0,0,1-.572,1.263,2.051,2.051,0,0,1-1.383.522H1.955A2.051,2.051,0,0,1,.572,8.278,1.709,1.709,0,0,1,0,7.015V1.785A1.709,1.709,0,0,1,.572.522,2.051,2.051,0,0,1,1.955,0Z" transform="translate(3.52 7.3)" fill="#fff"/>
      <g id="组_151" data-name="组 151" transform="translate(5.209 0)">
        <path id="路径_641" data-name="路径 641" d="M1.4,0A1.4,1.4,0,1,1,.855.111,1.4,1.4,0,0,1,1.4,0Z" transform="translate(-0.001 0)" fill="#06f"/>
        <path id="路径_642" data-name="路径 642" d="M0,.737,1.276,0,2.824,2.68l-1.276.737Z" transform="translate(1.33 2.046)" fill="#06f"/>
      </g>
      <g id="组_152" data-name="组 152" transform="translate(14.85 0)">
        <path id="路径_646" data-name="路径 646" d="M1.4,0A1.4,1.4,0,1,1,.855.111,1.4,1.4,0,0,1,1.4,0Z" transform="translate(1.352 0)" fill="#06f"/>
        <path id="路径_647" data-name="路径 647" d="M1.276,3.417,0,2.68,1.548,0,2.824.737Z" transform="translate(0 2.047)" fill="#06f"/>
      </g>
      <g id="组_153" data-name="组 153" transform="translate(6.294 8.578)">
        <path id="矩形_54" data-name="矩形 54" d="M.536.552A.663.663,0,0,1,1.477.535L4,2.967a.663.663,0,0,1-.925.951L.553,1.487A.663.663,0,0,1,.536.552Z" transform="translate(-0.351 -0.347)" fill="#06f"/>
        <path id="矩形_55" data-name="矩形 55" d="M3.955.546a.663.663,0,0,1,0,.941L1.481,3.957a.666.666,0,0,1-.941-.941L3.018.546a.663.663,0,0,1,.941,0Z" transform="translate(-0.307 2.107)" fill="#06f"/>
      </g>
      <path id="路径_644" data-name="路径 644" d="M1.56,2.064,1.749.991H1.736A.715.715,0,0,0,1.621,1a.549.549,0,0,0-.1.027.465.465,0,0,0-.089.044.453.453,0,0,0-.138.138.465.465,0,0,0-.044.089.549.549,0,0,0-.027.1.715.715,0,0,0-.009.115.514.514,0,0,0,0,.071.5.5,0,0,0,.015.07.508.508,0,0,0,.023.071.549.549,0,0,0,.035.065.671.671,0,0,0,.046.065q.027.033.06.067t.074.071ZM1.384,4.479a.851.851,0,0,0,.125-.008.657.657,0,0,0,.111-.026.549.549,0,0,0,.1-.043A.506.506,0,0,0,1.8,4.339a.471.471,0,0,0,.069-.078.438.438,0,0,0,.049-.087.478.478,0,0,0,.029-.095.594.594,0,0,0,.01-.11.506.506,0,0,0-.006-.078.471.471,0,0,0-.018-.075.48.48,0,0,0-.03-.071.523.523,0,0,0-.041-.067.664.664,0,0,0-.053-.065.874.874,0,0,0-.067-.064q-.037-.031-.078-.063a1.053,1.053,0,0,0-.093-.062ZM1.2,5.6H.941l.106-.633Q.961,4.941.88,4.91T.723,4.842a1.654,1.654,0,0,1-.146-.078,1.6,1.6,0,0,1-.135-.095A1.635,1.635,0,0,1,.317,4.56Q.26,4.5.2,4.433T.1,4.3Q.046,4.224,0,4.144l.523-.331q.031.06.063.115t.067.1q.035.049.07.093a1.121,1.121,0,0,0,.152.155.956.956,0,0,0,.083.062.919.919,0,0,0,.182.093l.194-1.12q-.172-.085-.314-.169T.751,2.981a2.475,2.475,0,0,1-.217-.168,1.569,1.569,0,0,1-.166-.166,1.2,1.2,0,0,1-.123-.173,1.132,1.132,0,0,1-.087-.189,1.181,1.181,0,0,1-.053-.2,1.351,1.351,0,0,1-.018-.221,1.561,1.561,0,0,1,.027-.295A1.283,1.283,0,0,1,.191,1.3a1.2,1.2,0,0,1,.135-.235A1.309,1.309,0,0,1,.515.857,1.4,1.4,0,0,1,.75.689a1.484,1.484,0,0,1,.265-.12A1.754,1.754,0,0,1,1.315.5,2.241,2.241,0,0,1,1.647.471h.194L1.928,0h.255L2.09.53q.078.024.157.054A1.54,1.54,0,0,1,2.39.652,1.442,1.442,0,0,1,2.522.73a1.4,1.4,0,0,1,.122.093A1.442,1.442,0,0,1,2.755.93a1.557,1.557,0,0,1,.1.121q.049.064.093.135t.084.149l-.447.285a.969.969,0,0,0-.038-.1A.9.9,0,0,0,2.5,1.423a.872.872,0,0,0-.062-.089.882.882,0,0,0-.069-.078.9.9,0,0,0-.078-.071A.929.929,0,0,0,2.2,1.121a1,1,0,0,0-.1-.053A1.1,1.1,0,0,0,2,1.02L1.792,2.173q.188.094.346.184t.286.176A2.727,2.727,0,0,1,2.65,2.7a1.49,1.49,0,0,1,.166.157,1.111,1.111,0,0,1,.119.162A1.046,1.046,0,0,1,3.02,3.2a1.093,1.093,0,0,1,.051.194,1.255,1.255,0,0,1,.017.209,1.516,1.516,0,0,1-.028.3,1.255,1.255,0,0,1-.085.267,1.191,1.191,0,0,1-.141.235,1.326,1.326,0,0,1-.2.206,1.462,1.462,0,0,1-.245.167,1.6,1.6,0,0,1-.281.119,1.941,1.941,0,0,1-.318.071,2.515,2.515,0,0,1-.355.024H1.3Z" transform="translate(13.88 8.779)" fill="#06f"/>
    </g>
  </g>
</svg>
