<svg xmlns="http://www.w3.org/2000/svg" width="11.257" height="10.763" viewBox="0 0 11.257 10.763">
  <g id="github" style="isolation: isolate">
    <path id="路径_645" data-name="路径 645" d="M1.392,1.978a.54.54,0,0,1-.281.1.552.552,0,0,1-.488-.238A.54.54,0,0,1,.53,1.557L.495.754A.541.541,0,0,1,.557.473.551.551,0,0,1,1,.185a.541.541,0,0,1,.282.054l.69.337a.541.541,0,0,1,.216.189.551.551,0,0,1,.043.524.541.541,0,0,1-.182.222Z" transform="translate(1.797 8.331)" fill="#333"/>
    <path id="路径_640" data-name="路径 640" d="M.909,0H7.49A.908.908,0,0,1,8.4.909V6.474a.908.908,0,0,1-.909.909H.909A.908.908,0,0,1,0,6.474V.909A.908.908,0,0,1,.909,0Z" transform="translate(1.429 2.264)" fill="#333"/>
    <path id="路径_636" data-name="路径 636" d="M0,0H.732a.731.731,0,0,1,.732.732v3.3a.731.731,0,0,1-.732.732H0Z" transform="translate(9.793 3.588)" fill="#333"/>
    <path id="路径_637" data-name="路径 637" d="M.732,0h.732V4.764H.732A.731.731,0,0,1,0,4.033V.732A.731.731,0,0,1,.732,0Z" transform="translate(0 3.588)" fill="#333"/>
    <path id="路径_643" data-name="路径 643" d="M.909,0H6.785a.908.908,0,0,1,.909.909V3.572a.908.908,0,0,1-.909.909H.909A.908.908,0,0,1,0,3.572V.909A.908.908,0,0,1,.909,0Z" transform="translate(1.792 3.717)" fill="#fff"/>
    <g id="组_151" data-name="组 151" transform="translate(2.455)">
      <path id="路径_641" data-name="路径 641" d="M.715,0A.713.713,0,1,1,.437.056.713.713,0,0,1,.715,0Z" fill="#333"/>
      <path id="路径_642" data-name="路径 642" d="M0,.375.65,0l.788,1.365-.65.375Z" transform="translate(0.679 1.042)" fill="#333"/>
    </g>
    <g id="组_152" data-name="组 152" transform="translate(7.001)">
      <path id="路径_646" data-name="路径 646" d="M.715,0A.713.713,0,1,1,.437.056.713.713,0,0,1,.715,0Z" transform="translate(0.688)" fill="#333"/>
      <path id="路径_647" data-name="路径 647" d="M.65,1.74,0,1.365.788,0l.65.375Z" transform="translate(0 1.042)" fill="#333"/>
    </g>
    <g id="组_153" data-name="组 153" transform="translate(2.829 4.229)">
      <path id="矩形_54" data-name="矩形 54" d="M.235.243A.337.337,0,0,1,.712.235L1.994,1.472a.338.338,0,1,1-.469.486L.243.72A.337.337,0,0,1,.235.243Z" fill="#333"/>
      <path id="矩形_55" data-name="矩形 55" d="M1.976.239a.337.337,0,0,1,0,.477L.716,1.976A.338.338,0,1,1,.239,1.5L1.5.239a.337.337,0,0,1,.477,0Z" transform="translate(0.022 1.25)" fill="#333"/>
    </g>
    <path id="路径_644" data-name="路径 644" d="M.794,1.051.891.5H.884a.364.364,0,0,0-.058,0A.28.28,0,0,0,.774.522.237.237,0,0,0,.728.545a.231.231,0,0,0-.07.07A.237.237,0,0,0,.635.661.28.28,0,0,0,.622.712a.364.364,0,0,0,0,.058.262.262,0,0,0,0,.037A.252.252,0,0,0,.627.843.259.259,0,0,0,.64.877.281.281,0,0,0,.658.91.342.342,0,0,0,.682.943Q.7.96.712.978l.038.036ZM.705,2.28a.433.433,0,0,0,.063,0,.335.335,0,0,0,.057-.013.278.278,0,0,0,.05-.022.257.257,0,0,0,.043-.031.238.238,0,0,0,.035-.038.223.223,0,0,0,.025-.044.244.244,0,0,0,.015-.05A.3.3,0,0,0,1,2.021a.258.258,0,0,0,0-.04.241.241,0,0,0-.009-.038.244.244,0,0,0-.015-.036A.267.267,0,0,0,.95,1.873.338.338,0,0,0,.923,1.84a.445.445,0,0,0-.034-.033L.848,1.775.8,1.744Zm-.094.57H.481l.054-.322Q.491,2.516.45,2.5T.37,2.466A.842.842,0,0,1,.3,2.424a.816.816,0,0,1-.069-.048A.832.832,0,0,1,.163,2.32Q.132,2.291.1,2.257T.05,2.187Q.024,2.15,0,2.11l.266-.169Q.282,1.972.3,2t.034.053q.017.025.036.048t.037.042a.523.523,0,0,0,.04.037.487.487,0,0,0,.042.031.468.468,0,0,0,.093.047l.1-.57Q.592,1.645.518,1.6T.382,1.517a1.26,1.26,0,0,1-.11-.085.8.8,0,0,1-.085-.085.611.611,0,0,1-.063-.088.576.576,0,0,1-.045-.1.6.6,0,0,1-.027-.1A.688.688,0,0,1,.044.946.8.8,0,0,1,.058.8.653.653,0,0,1,.1.661.613.613,0,0,1,.167.541a.667.667,0,0,1,.1-.1A.714.714,0,0,1,.381.351.756.756,0,0,1,.517.29.893.893,0,0,1,.67.253,1.141,1.141,0,0,1,.84.241h.1L.982,0h.13L1.064.27Q1.1.282,1.142.3a.784.784,0,0,1,.073.034.735.735,0,0,1,.067.041A.711.711,0,0,1,1.344.42.734.734,0,0,1,1.4.474a.793.793,0,0,1,.052.061Q1.478.568,1.5.6T1.543.68L1.316.825A.494.494,0,0,0,1.3.773.459.459,0,0,0,1.271.724.444.444,0,0,0,1.241.68.449.449,0,0,0,1.206.639.46.46,0,0,0,1.166.6.473.473,0,0,0,1.121.571.507.507,0,0,0,1.072.544.562.562,0,0,0,1.019.521l-.106.587q.1.048.176.094t.146.09a1.389,1.389,0,0,1,.115.085.758.758,0,0,1,.084.081.566.566,0,0,1,.061.083.532.532,0,0,1,.043.091.556.556,0,0,1,.026.1.64.64,0,0,1,.009.107.772.772,0,0,1-.014.152.637.637,0,0,1-.043.136.606.606,0,0,1-.072.121.675.675,0,0,1-.1.105.745.745,0,0,1-.124.085.816.816,0,0,1-.143.061.988.988,0,0,1-.162.037,1.281,1.281,0,0,1-.18.012H.663Z" transform="translate(6.572 4.47)" fill="#333"/>
  </g>
</svg>
